<?xml version="1.0" encoding="UTF-8" standalone="no"?>
<svg
   xmlns:dc="http://purl.org/dc/elements/1.1/"
   xmlns:cc="http://creativecommons.org/ns#"
   xmlns:rdf="http://www.w3.org/1999/02/22-rdf-syntax-ns#"
   xmlns:svg="http://www.w3.org/2000/svg"
   xmlns="http://www.w3.org/2000/svg"
   xmlns:xlink="http://www.w3.org/1999/xlink"
   xmlns:sodipodi="http://sodipodi.sourceforge.net/DTD/sodipodi-0.dtd"
   xmlns:inkscape="http://www.inkscape.org/namespaces/inkscape"
   width="1000"
   height="145.5869"
   viewBox="201.1 248 1000 145.5869"
   enable-background="new 201.1 248 110 16"
   id="svg2"
   version="1.1"
   inkscape:version="0.48.5 r10040"
   sodipodi:docname="index.svg">
  <metadata
     id="metadata18">
    <rdf:RDF>
      <cc:Work
         rdf:about="">
        <dc:format>image/svg+xml</dc:format>
        <dc:type
           rdf:resource="http://purl.org/dc/dcmitype/StillImage" />
        <dc:title></dc:title>
      </cc:Work>
    </rdf:RDF>
  </metadata>
  <sodipodi:namedview
     pagecolor="#ffffff"
     bordercolor="#666666"
     borderopacity="1"
     objecttolerance="10"
     gridtolerance="10"
     guidetolerance="10"
     inkscape:pageopacity="0"
     inkscape:pageshadow="2"
     inkscape:window-width="1029"
     inkscape:window-height="1037"
     id="namedview16"
     showgrid="false"
     fit-margin-top="0"
     fit-margin-left="0"
     fit-margin-right="0"
     fit-margin-bottom="0"
     inkscape:zoom="0.41658031"
     inkscape:cx="617.31364"
     inkscape:cy="-273.89665"
     inkscape:window-x="884"
     inkscape:window-y="-17"
     inkscape:window-maximized="0"
     inkscape:current-layer="svg2" />
  <path
     d="m 471.34566,339.90172 -17.28845,-39.12648 -18.19836,39.12648 h 35.48681 z m 6.36942,16.37853 h -49.13557 l -12.73886,28.20746 h -18.19836 l 56.41492,-121.92903 54.59509,121.92903 h -19.10828 l -11.82894,-28.20746 z m 101.00091,-70.97361 v 99.18107 h -17.28844 v -99.18107 h -26.38762 v -16.37853 h 70.06369 v 16.37853 z m 89.17198,29.11737 h 49.13558 v -45.4959 h 17.28844 v 115.5596 h -17.28844 v -53.68517 h -49.13558 v 53.68517 h -17.28844 v -115.5596 h 17.28844 z m 141.94722,-45.4959 v 99.18107 h 33.66697 v 16.37853 h -50.95541 v -115.5596 z m 142.85715,16.37853 h -45.49591 v 28.20746 h 44.58599 v 16.37852 h -44.58599 v 38.21656 h 45.49591 v 16.37853 h -62.78435 v -115.5596 h 62.78435 z m 84.62236,0 v 99.18107 h -17.2884 v -99.18107 h -26.38765 v -16.37853 h 70.06375 v 16.37853 z m 109.1902,15.4686 17.2885,39.12648 h -34.5769 l 17.2884,-39.12648 z m -56.4149,83.71247 h 18.1984 l 12.7388,-28.20746 h 49.1356 l 11.8289,28.20746 H 1201.1 L 1146.5049,262.55868 1090.09,384.48771 z"
     id="path4"
     inkscape:connector-curvature="0"
     style="fill:#010101" />
  <defs
     id="defs6">
    <path
       id="a"
       d="m 201.1,248 h 110 v 16 h -110 z"
       inkscape:connector-curvature="0" />
  </defs>
  <clipPath
     id="b">
    <use
       xlink:href="#a"
       overflow="visible"
       id="use10"
       style="overflow:visible"
       x="0"
       y="0"
       width="110"
       height="16" />
  </clipPath>
  <path
     clip-path="url(#b)"
     d="m 209,248 c -4.4,0 -8,3.6 -8,8 0,4.4 3.6,8 8,8 4.4,0 8,-3.6 8,-8 0,-4.4 -3.6,-8 -8,-8"
     id="path12"
     style="fill:#8b008c;fill-opacity:1"
     inkscape:connector-curvature="0"
     transform="matrix(9.0991811,0,0,9.0991811,-1628.7453,-2008.5969)" />
  <path
     d="m 313.01991,339.90172 4.54959,23.65787 -43.67607,-42.76615 17.28844,39.12648 -10.91901,21.83803 -6.36943,-60.96451 -11.82894,41.85623 -22.74795,8.18927 34.57689,-50.0455 -36.39673,23.65787 -22.74795,-7.27934 59.14468,-16.37853 -42.76615,-4.54959 -12.73886,-20.92812 55.50501,25.47771 -30.0273,-31.84713 3.63967,-23.65787 26.38763,55.505 -2.72976,-43.67607 17.28845,-15.46861 -14.55869,59.14468 25.47771,-35.4868 23.65787,-0.90992 -49.13558,36.39672 41.85623,-10.91902 19.10828,15.46861 -60.96451,-4.54959 z"
     id="path14"
     inkscape:connector-curvature="0"
     style="fill:#fffffe" />
</svg>
