<?xml version="1.0" encoding="utf-8"?>
<!-- Generator: Adobe Illustrator 23.0.4, SVG Export Plug-In . SVG Version: 6.00 Build 0)  -->
<svg version="1.1" id="Layer_1" xmlns="http://www.w3.org/2000/svg" xmlns:xlink="http://www.w3.org/1999/xlink" x="0px" y="0px"
	 viewBox="0 0 2000 675" style="enable-background:new 0 0 2000 675;" xml:space="preserve">
<style type="text/css">
	.st0{fill:#E30613;}
	.st1{filter:url(#Adobe_OpacityMaskFilter);}
	.st2{fill-rule:evenodd;clip-rule:evenodd;fill:#FFFFFF;}
	.st3{mask:url(#mask-2_1_);fill:#FFFFFF;}
	.st4{filter:url(#Adobe_OpacityMaskFilter_1_);}
	.st5{mask:url(#mask-2_2_);fill:#FFFFFF;}
	.st6{filter:url(#Adobe_OpacityMaskFilter_2_);}
	.st7{mask:url(#mask-2_3_);fill:#FFFFFF;}
	.st8{filter:url(#Adobe_OpacityMaskFilter_3_);}
	.st9{mask:url(#mask-2_4_);fill:#FFFFFF;}
	.st10{filter:url(#Adobe_OpacityMaskFilter_4_);}
	.st11{mask:url(#mask-2_5_);fill:#FFFFFF;}
	.st12{filter:url(#Adobe_OpacityMaskFilter_5_);}
	.st13{mask:url(#mask-2_6_);fill:#FFFFFF;}
	.st14{filter:url(#Adobe_OpacityMaskFilter_6_);}
	.st15{mask:url(#mask-2_7_);fill:#ED1C24;}
</style>
<title>B-Logo</title>
<desc>Created with Sketch.</desc>
<g>
	<g id="Shape">
		<polygon class="st0" points="2000,0 2000,675 0,675 0,0 		"/>
	</g>
	<defs>
		<filter id="Adobe_OpacityMaskFilter" filterUnits="userSpaceOnUse" x="1116.4" y="249.9" width="282.3" height="281.9">
			<feColorMatrix  type="matrix" values="1 0 0 0 0  0 1 0 0 0  0 0 1 0 0  0 0 0 1 0"/>
		</filter>
	</defs>
	<mask maskUnits="userSpaceOnUse" x="1116.4" y="249.9" width="282.3" height="281.9" id="mask-2_1_">
		<g class="st1">
			<polygon id="path-1_1_" class="st2" points="2000,-0.3 2000,675.3 0,675.3 0,-0.3 			"/>
		</g>
	</mask>
	<path class="st3" d="M1398.7,249.9c0,0,0,60,0,139c0,78.9-63.2,142.9-141.2,142.9s-141.2-64-141.2-142.9v-139h47.1v139
		c0,52.6,42.1,95.3,94.1,95.3c52,0,94.1-42.7,94.1-95.3s0-139,0-139H1398.7"/>
	<defs>
		<filter id="Adobe_OpacityMaskFilter_1_" filterUnits="userSpaceOnUse" x="205" y="154.6" width="282.3" height="377.2">
			<feColorMatrix  type="matrix" values="1 0 0 0 0  0 1 0 0 0  0 0 1 0 0  0 0 0 1 0"/>
		</filter>
	</defs>
	<mask maskUnits="userSpaceOnUse" x="205" y="154.6" width="282.3" height="377.2" id="mask-2_2_">
		<g class="st4">
			<polygon id="path-1_2_" class="st2" points="2000,-0.3 2000,675.3 0,675.3 0,-0.3 			"/>
		</g>
	</mask>
	<path class="st5" d="M346.2,246c-36.4,0-69.1,13.4-94.1,36.3V154.6H205v234.3c0,78.9,63.2,142.9,141.2,142.9s141.2-64,141.2-142.9
		C487.3,310,424.1,246,346.2,246L346.2,246z M346.2,484.2c-52,0-94.1-42.7-94.1-95.3s42.1-95.3,94.1-95.3c52,0,94.1,42.7,94.1,95.3
		S398.1,484.2,346.2,484.2z"/>
	<defs>
		<filter id="Adobe_OpacityMaskFilter_2_" filterUnits="userSpaceOnUse" x="808.1" y="154.6" width="282.3" height="377.2">
			<feColorMatrix  type="matrix" values="1 0 0 0 0  0 1 0 0 0  0 0 1 0 0  0 0 0 1 0"/>
		</filter>
	</defs>
	<mask maskUnits="userSpaceOnUse" x="808.1" y="154.6" width="282.3" height="377.2" id="mask-2_3_">
		<g class="st6">
			<polygon id="path-1_3_" class="st2" points="2000,-0.3 2000,675.3 0,675.3 0,-0.3 			"/>
		</g>
	</mask>
	<path class="st7" d="M1043.4,154.6v127.6c-25-22.9-57.7-36.3-94.1-36.3c-78,0-141.2,64-141.2,142.9s63.2,142.9,141.2,142.9
		c78,0,141.2-64,141.2-142.9V154.6H1043.4L1043.4,154.6z M949.3,484.2c-52,0-94.1-42.7-94.1-95.3s42.1-95.3,94.1-95.3
		c52,0,94.1,42.7,94.1,95.3S1001.3,484.2,949.3,484.2z"/>
	<defs>
		<filter id="Adobe_OpacityMaskFilter_3_" filterUnits="userSpaceOnUse" x="506.6" y="246" width="282.3" height="285.9">
			<feColorMatrix  type="matrix" values="1 0 0 0 0  0 1 0 0 0  0 0 1 0 0  0 0 0 1 0"/>
		</filter>
	</defs>
	<mask maskUnits="userSpaceOnUse" x="506.6" y="246" width="282.3" height="285.9" id="mask-2_4_">
		<g class="st8">
			<polygon id="path-1_4_" class="st2" points="2000,-0.3 2000,675.3 0,675.3 0,-0.3 			"/>
		</g>
	</mask>
	<path class="st9" d="M647.7,246c-78,0-141.2,64-141.2,142.9s63.2,142.9,141.2,142.9c78,0,141.2-64,141.2-142.9
		C788.9,310,725.7,246,647.7,246L647.7,246z M647.7,484.2c-52,0-94.1-42.7-94.1-95.3s42.1-95.3,94.1-95.3s94.1,42.7,94.1,95.3
		S699.7,484.2,647.7,484.2z"/>
	<defs>
		<filter id="Adobe_OpacityMaskFilter_4_" filterUnits="userSpaceOnUse" x="1424.6" y="246" width="372.5" height="280.3">
			<feColorMatrix  type="matrix" values="1 0 0 0 0  0 1 0 0 0  0 0 1 0 0  0 0 0 1 0"/>
		</filter>
	</defs>
	<mask maskUnits="userSpaceOnUse" x="1424.6" y="246" width="372.5" height="280.3" id="mask-2_5_">
		<g class="st10">
			<polygon id="path-1_5_" class="st2" points="2000,-0.3 2000,675.3 0,675.3 0,-0.3 			"/>
		</g>
	</mask>
	<path class="st11" d="M1592.6,318.4c16.7-15.4,38.9-24.8,63.3-24.8c52,0,94.1,42.7,94.1,95.3v137.4h47.1V388.9
		c0-78.9-63.2-142.9-141.2-142.9c-36.2,0-69.5,13.9-94.5,36.6c-24.4-20.4-55.8-32.6-89.8-32.6h-47v276.3h47.1l0-228.7
		c50.7,0,91.9,40.5,94,91.3l47.1,0C1612.1,363.3,1604.9,338.9,1592.6,318.4"/>
	<defs>
		<filter id="Adobe_OpacityMaskFilter_5_" filterUnits="userSpaceOnUse" x="1728.1" y="141.9" width="86.3" height="87.4">
			<feColorMatrix  type="matrix" values="1 0 0 0 0  0 1 0 0 0  0 0 1 0 0  0 0 0 1 0"/>
		</filter>
	</defs>
	<mask maskUnits="userSpaceOnUse" x="1728.1" y="141.9" width="86.3" height="87.4" id="mask-2_6_">
		<g class="st12">
			<polygon id="path-1_6_" class="st2" points="2000,-0.3 2000,675.3 0,675.3 0,-0.3 			"/>
		</g>
	</mask>
	<path class="st13" d="M1728.1,185.6c0-24.1,19.3-43.7,43.1-43.7c23.8,0,43.1,19.6,43.1,43.7c0,24.1-19.3,43.7-43.1,43.7
		C1747.4,229.3,1728.1,209.7,1728.1,185.6"/>
	<defs>
		<filter id="Adobe_OpacityMaskFilter_6_" filterUnits="userSpaceOnUse" x="1748" y="155.1" width="50.5" height="60.4">
			<feColorMatrix  type="matrix" values="1 0 0 0 0  0 1 0 0 0  0 0 1 0 0  0 0 0 1 0"/>
		</filter>
	</defs>
	<mask maskUnits="userSpaceOnUse" x="1748" y="155.1" width="50.5" height="60.4" id="mask-2_7_">
		<g class="st14">
			<polygon id="path-1_7_" class="st2" points="2000,-0.3 2000,675.3 0,675.3 0,-0.3 			"/>
		</g>
	</mask>
	<path class="st15" d="M1758.5,163.8h17c5.4,0,10.4,1.5,10.4,9.2c0,6.4-3.6,9.7-10.2,9.7h-17.1V163.8L1758.5,163.8z M1748,215.6
		h10.5v-24.9h15.4c9.6,0,11.9,4.9,11.9,16c0,3,0,6.3,1.6,8.9h11.2c-2.2-2.4-3.3-8.9-3.3-15.9c0-9.6-5.3-12.3-8.8-12.8v-0.2
		c1.9-0.7,9.9-3.6,9.9-15.2c0-10.2-6.7-16.3-19.7-16.3h-28.5L1748,215.6L1748,215.6z"/>
</g>
</svg>
