<svg xmlns:xlink="http://www.w3.org/1999/xlink" width="118.42105263157896" height="45" viewBox="0 0 100 38" xmlns="http://www.w3.org/2000/svg"><path fill-rule="evenodd" clip-rule="evenodd" d="M17.2812 0.000244141V0.945594H18.9187V26.8453H17.2812V27.7912H24.0514V26.8453H22.4111V0.945594V0.000244141H17.2812Z" fill="#000000"></path><path fill-rule="evenodd" clip-rule="evenodd" d="M46.4074 23.8297C46.4074 22.9694 46.6221 22.2306 47.0467 21.6464C47.0759 21.6038 47.1047 21.567 47.1486 21.5216C47.5694 21.0792 48.2647 20.6131 48.9384 20.3323L51.8119 19.1833C52.3445 18.9587 52.7181 18.635 52.9219 18.4104V21.8818C52.9219 22.3847 52.8743 22.9344 52.7879 23.5702C52.786 23.5877 52.786 23.599 52.778 23.6155C52.5398 24.6885 52.3275 25.0577 52.1463 25.3649C51.8543 25.8815 51.492 26.1874 51.0443 26.5022C50.7297 26.713 50.064 27.0774 49.1389 27.0774C48.7072 27.0774 48.3275 27.0103 48.0161 26.9224C47.9279 26.8855 47.8321 26.8463 47.7496 26.7995C47.3958 26.6076 47.1184 26.3519 46.9334 26.0517C46.7296 25.7454 46.599 25.3928 46.5207 24.9957C46.4499 24.5987 46.4074 24.2097 46.4074 23.8297ZM58.8849 26.7829C58.8849 26.7829 58.6184 26.902 58.4905 26.9479C58.2018 27.0448 57.9136 27.093 57.6409 27.093C57.2394 27.093 56.9389 26.9824 56.7318 26.7442C56.5224 26.505 56.4082 26.0333 56.4082 25.3243V15.7942C56.4082 15.0956 56.3096 14.4234 56.1025 13.7905C55.8935 13.1548 55.5416 12.5729 55.0519 12.0671C54.5537 11.5595 53.8966 11.1587 53.1092 10.8613C52.31 10.5569 51.308 10.4128 50.123 10.4128C49.1488 10.4128 48.2822 10.5291 47.5231 10.7597C46.7584 10.9909 46.1183 11.3128 45.6083 11.7126C45.1096 12.121 44.7129 12.5871 44.4577 13.1084C44.1916 13.6317 44.068 14.188 44.068 14.7581C44.068 15.2667 44.1756 15.6841 44.3897 16.0036C44.6171 16.3415 45.1549 16.506 46.0414 16.506C46.5466 16.506 46.9457 16.3779 47.2174 16.1151C47.4977 15.8504 47.6312 15.5295 47.6312 15.1414C47.6312 14.9311 47.5963 14.6186 47.5231 14.188C47.4401 13.773 47.4099 13.3533 47.4099 12.925C47.4099 12.2978 47.6533 11.8577 48.1666 11.5831C48.6964 11.2981 49.3809 11.1587 50.1971 11.1587C50.8202 11.1587 51.3175 11.2419 51.6812 11.412C52.0501 11.5831 52.3275 11.8327 52.5134 12.1522C52.7125 12.4855 52.8478 12.8934 52.9266 13.359C52.9955 13.8354 53.0299 14.3809 53.0299 14.9826C53.0299 15.7436 52.9785 16.3444 52.8653 16.7877C52.82 16.9518 52.761 17.1087 52.6846 17.2529C52.5931 17.4117 52.4742 17.5563 52.3275 17.7014C51.9992 18.0143 51.6166 18.2573 51.1717 18.4227C50.5004 18.6718 49.4918 19.015 48.9474 19.1937C48.31 19.404 47.4156 19.7231 46.7584 19.9533L46.481 20.0516C46.4607 20.0658 46.4409 20.0738 46.4202 20.0851C45.8748 20.2728 45.3644 20.4765 44.8997 20.7332C44.3161 21.0593 43.835 21.4984 43.4689 22.0496C43.107 22.5998 42.9287 23.3409 42.9287 24.2499C42.9287 24.6408 42.9792 25.0629 43.0957 25.5181C43.2118 25.986 43.4585 26.4062 43.8232 26.7773C44.1916 27.1355 44.7077 27.4532 45.3559 27.6952C45.888 27.9018 46.5886 28.0147 47.4241 28.0488C47.4722 28.0544 47.5175 28.0724 47.5694 28.0724C48.4921 28.0724 49.6328 28.0469 50.3018 27.819C50.8886 27.6267 51.4515 27.3175 51.8907 26.937C52.2935 26.591 52.4714 26.3925 52.786 25.8607C52.8823 25.7057 52.9672 25.5091 53.0469 25.3271C53.2729 26.1302 53.6248 26.7867 54.1206 27.2547C54.6778 27.7916 55.5958 28.0662 56.8455 28.0662C57.5163 28.0662 58.0999 27.9646 58.5589 27.7718C58.8 27.6749 59.2052 27.4532 59.2274 27.4475L59.3147 27.3998L58.9778 26.7413L58.8849 26.7829Z" fill="#000000"></path><path fill-rule="evenodd" clip-rule="evenodd" d="M73.7221 11.7921C73.4358 11.4915 73.0678 11.2415 72.6201 11.0425C72.1833 10.8506 71.6455 10.7537 71.0572 10.7537C70.2293 10.7537 69.516 10.9073 68.9267 11.2192C68.3484 11.5307 67.8436 11.9179 67.4251 12.3655C67.0147 12.8254 66.6949 13.299 66.459 13.7911C66.3033 14.1253 66.1731 14.4207 66.0825 14.6929V12.1126V11.1682H61.0229V11.9141V12.1126H62.6717V26.8459H61.0229V27.0506V27.7912H68.1847V27.0506V26.8459H66.1623V18.3888C66.1623 17.3324 66.2887 16.3813 66.5557 15.5669C66.8222 14.7492 67.1473 14.0458 67.5327 13.4687C67.9233 12.8991 68.3314 12.4624 68.7843 12.1613C69.224 11.8753 69.6405 11.7212 70.0255 11.7212C70.8477 11.7212 71.2525 12.0876 71.2525 12.84C71.2525 13.1638 71.2327 13.4096 71.1808 13.5746C71.1421 13.7476 71.0846 13.9036 71.0223 14.043C70.9581 14.1815 70.8977 14.3233 70.8477 14.4769C70.7907 14.6187 70.7619 14.8149 70.7619 15.056C70.7619 15.8368 71.3591 16.231 72.5461 16.231C73.0787 16.231 73.5438 16.0831 73.9458 15.7943C74.3486 15.4932 74.5576 14.8995 74.5576 14.0236C74.5576 13.637 74.4925 13.2343 74.3538 12.8481C74.226 12.4506 74.016 12.0961 73.7221 11.7921Z" fill="#000000"></path><path fill-rule="evenodd" clip-rule="evenodd" d="M82.665 27.0507V26.8456H81.0186V0.94535V0H75.8896V0.746827V0.94535H77.5257V26.8456H75.8896V27.0507V27.7909H82.665V27.0507Z" fill="#000000"></path><path fill-rule="evenodd" clip-rule="evenodd" d="M96.5385 11.914V12.1126H98.0778L93.2734 23.3376L88.6724 12.1126H90.4495V11.914V11.1682H83.4859V12.1126H84.9422L91.3208 27.9585L91.2642 28.1263L89.8626 31.7782L89.6249 32.3629C89.347 33.0781 89.106 33.6911 88.8399 34.2621C88.5219 34.912 88.2275 35.5312 87.9176 35.9533C87.5968 36.3769 87.3331 36.6401 87.0491 36.8311C86.9132 36.9162 86.7387 36.9918 86.5651 37.058C86.3702 37.118 86.1716 37.1431 85.9617 37.1431C85.6697 37.1431 85.4409 37.0915 85.2871 37.0008C85.1371 36.9181 85.0668 36.737 85.0668 36.4397C85.0668 36.0824 85.1663 35.7435 85.3663 35.4476C85.6022 35.111 85.7126 34.7466 85.7126 34.3727C85.7126 34.1056 85.6569 33.8622 85.497 33.6637C85.3663 33.4704 85.2022 33.3229 85.0215 33.2203C84.8328 33.1126 84.6304 33.0303 84.4096 32.9878C84.1997 32.9481 84.0016 32.9277 83.8204 32.9277C83.2821 32.9277 82.8292 33.1012 82.4551 33.442C82.0702 33.7762 81.8853 34.2905 81.8853 34.9513C81.8853 35.19 81.9169 35.4778 82.0027 35.8139C82.081 36.1627 82.2509 36.4988 82.5179 36.8136C82.7755 37.1312 83.1415 37.4092 83.6029 37.6427C84.052 37.8752 84.6766 38 85.4239 38C86.0414 38 86.5962 37.8866 87.0732 37.6649C87.0944 37.6507 87.1128 37.637 87.1401 37.6313C87.5878 37.4158 88.061 37.1478 88.4658 36.7049C88.7885 36.3537 89.1678 35.8829 89.5999 35.043C89.9844 34.3188 91.4628 30.7199 91.845 29.741L91.8987 29.5959C92.3073 28.5631 92.6186 27.7425 93.0833 26.6936L99.2982 12.1126H100V11.914V11.1682H96.5385V11.914Z" fill="#000000"></path><path fill-rule="evenodd" clip-rule="evenodd" d="M15.6958 22.3277H14.5848C14.0979 25.1883 11.6618 26.9868 9.26245 26.9868C8.0222 26.9868 5.81627 26.741 4.98787 25.0243C4.98787 25.0243 4.98268 25.0243 4.98268 25.0186C4.61424 24.3054 4.36421 23.4664 4.22929 22.5149C4.09248 21.5497 4.01889 20.5136 4.01889 19.4259C4.01889 17.5031 4.17692 15.9707 4.49017 14.8722C4.80577 13.7647 5.19167 12.911 5.6955 12.3793C6.77818 11.2359 8.45244 11.1588 8.99308 11.1588C9.73751 11.1588 10.3984 11.312 10.9678 11.6164C11.5259 11.9222 11.7977 12.3339 11.7977 12.8879C11.7977 13.2027 11.701 13.6205 11.5283 14.114C11.3495 14.6306 11.2589 15.0849 11.2589 15.446C11.2589 15.9475 11.4712 16.311 11.9 16.5204C12.3246 16.7137 12.7492 16.8153 13.1969 16.8153C13.8545 16.8153 14.3758 16.6286 14.7405 16.268C15.0957 15.9054 15.2811 15.4366 15.2811 14.8745C15.2811 14.0677 15.0754 13.3705 14.6697 12.8085C14.2673 12.2469 13.7517 11.7899 13.1492 11.4372C12.5478 11.0917 11.8717 10.8332 11.1377 10.663C9.12375 10.2036 7.20229 10.3879 5.49784 11.0917C4.41233 11.5398 3.45278 12.1689 2.63947 12.9645C1.83277 13.7647 1.18647 14.7157 0.710464 15.7887C0.237765 16.8702 0 18.0476 0 19.3078C0 20.9257 0.27692 22.3107 0.824629 23.4233C1.37941 24.5237 2.10403 25.4379 2.97348 26.1105C3.8382 26.7949 4.72746 27.2208 5.75919 27.6065C6.82347 27.9865 8.07551 28.0664 8.76097 28.0664V28.0716L8.78456 28.0664C8.78456 28.0664 8.82466 28.0716 8.84117 28.0716L8.88882 28.0664C12.2911 28.0267 14.9136 26.197 15.6958 22.3277Z" fill="#000000"></path><path fill-rule="evenodd" clip-rule="evenodd" d="M29.8643 15.0114C30.0223 14.2608 30.2488 13.5863 30.5587 13.0101C30.8559 12.4447 31.2697 11.9863 31.7617 11.6511C32.2773 11.3217 32.9345 11.1595 33.7195 11.1595C34.1521 11.1595 34.572 11.2191 34.9512 11.3552C35.3305 11.4918 35.6542 11.7192 35.9089 12.0297C36.1745 12.3516 36.3844 12.7917 36.5321 13.3305C36.6849 13.8812 36.7614 14.5959 36.7614 15.4453V16.4072C36.7614 16.6851 36.7505 16.9834 36.7024 17.2934H29.5699C29.6261 16.5031 29.728 15.7379 29.8643 15.0114ZM40.0273 22.3279H39.7952C39.3216 25.1885 36.9397 26.988 34.6007 26.988C33.3883 26.988 31.4447 26.7999 30.4247 25.0179C30.0733 24.3061 29.8299 23.4661 29.6935 22.5151C29.5982 21.8283 29.5383 21.1013 29.5133 20.3521C29.5133 20.2477 29.5067 20.1304 29.5067 20.017C29.5011 19.8757 29.5011 19.7334 29.5011 19.5916C29.5011 19.2546 29.5011 18.9558 29.5133 18.7228C29.5242 18.5645 29.5242 18.4671 29.5242 18.3036H40.5486V17.8124H40.5368C40.5232 16.4526 40.3113 15.295 39.8684 14.37C39.4268 13.4152 38.8668 12.6433 38.2082 12.06C37.5402 11.4829 36.8095 11.0537 36.0443 10.7989C35.2692 10.5432 34.5403 10.4127 33.8643 10.4127C32.7312 10.4127 31.6546 10.6684 30.6682 11.1681C29.6883 11.6648 28.8161 12.3341 28.0853 13.1632C27.348 13.9828 26.7701 14.94 26.3455 16.004C25.9266 17.0656 25.7119 18.1778 25.7119 19.308C25.7119 20.6182 25.9181 21.8217 26.3252 22.8918C26.7361 23.9572 27.3201 24.8879 28.0617 25.6622C28.8128 26.4383 29.7082 27.0358 30.7276 27.4479C31.7282 27.8511 32.8321 28.0553 33.9945 28.0662C34.0167 28.0662 34.028 28.0728 34.028 28.0728C37.4492 28.0728 40.1066 26.2502 40.8831 22.3279H40.0273Z" fill="#000000"></path></svg>