<svg xmlns:xlink="http://www.w3.org/1999/xlink" viewBox="0 0 33 16" xmlns="http://www.w3.org/2000/svg" width="109.3125"  height="53" >
                      <path d="M7.983 16h4.506V6.053H7.983V16zm5.914-9.947v3.91h2.9L13.711 16h9.329v-3.887h-3.084L23.04 6.06h-9.144v-.007zm19.103 0h-9.306v3.91h3.084L23.694 16h9.13v-3.887h-2.908L33 6.053zM9.098 1.072L7.406 4.838c-.392-.28-.808-.446-1.315-.446-.77 0-1.392.499-1.392 1.548v.052h2.33v3.933H4.691V16H-.03V5.26C-.03 2.106 2.361 0 5.33 0c1.454 0 2.784.483 3.769 1.072z" fill="#00D672"></path>
                    </svg>