<?xml version="1.0" encoding="UTF-8" standalone="no"?>
<!-- Created with Inkscape (http://www.inkscape.org/) -->

<svg
   xmlns:dc="http://purl.org/dc/elements/1.1/"
   xmlns:cc="http://creativecommons.org/ns#"
   xmlns:rdf="http://www.w3.org/1999/02/22-rdf-syntax-ns#"
   xmlns:svg="http://www.w3.org/2000/svg"
   xmlns="http://www.w3.org/2000/svg"
   xmlns:sodipodi="http://sodipodi.sourceforge.net/DTD/sodipodi-0.dtd"
   xmlns:inkscape="http://www.inkscape.org/namespaces/inkscape"
   id="svg2985"
   version="1.1"
   inkscape:version="0.48.5 r10040"
   width="1000"
   height="378.78931"
   xml:space="preserve"
   sodipodi:docname="it_artist_application_membership.pdf"><metadata
     id="metadata2991"><rdf:RDF><cc:Work
         rdf:about=""><dc:format>image/svg+xml</dc:format><dc:type
           rdf:resource="http://purl.org/dc/dcmitype/StillImage" /><dc:title></dc:title></cc:Work></rdf:RDF></metadata><defs
     id="defs2989"><clipPath
       clipPathUnits="userSpaceOnUse"
       id="clipPath3175"><path
         d="M 0,792 612,792 612,0 0,0 0,792 z"
         id="path3177"
         inkscape:connector-curvature="0" /></clipPath><clipPath
       clipPathUnits="userSpaceOnUse"
       id="clipPath3205"><path
         d="M 0,792 612,792 612,0 0,0 0,792 z"
         id="path3207"
         inkscape:connector-curvature="0" /></clipPath><clipPath
       clipPathUnits="userSpaceOnUse"
       id="clipPath3265"><path
         d="m 242.252,718.14 127.044,0 0,48.045 -127.044,0 0,-48.045 z"
         id="path3267"
         inkscape:connector-curvature="0" /></clipPath><clipPath
       clipPathUnits="userSpaceOnUse"
       id="clipPath3281"><path
         d="M 0,792 612,792 612,0 0,0 0,792 z"
         id="path3283"
         inkscape:connector-curvature="0" /></clipPath></defs><sodipodi:namedview
     pagecolor="#ffffff"
     bordercolor="#666666"
     borderopacity="1"
     objecttolerance="10"
     gridtolerance="10"
     guidetolerance="10"
     inkscape:pageopacity="0"
     inkscape:pageshadow="2"
     inkscape:window-width="1052"
     inkscape:window-height="1015"
     id="namedview2987"
     showgrid="false"
     fit-margin-left="0.5"
     fit-margin-bottom="0.5"
     fit-margin-top="0.5"
     fit-margin-right="0.5"
     inkscape:zoom="0.26930546"
     inkscape:cx="349.52527"
     inkscape:cy="-318.68408"
     inkscape:window-x="861"
     inkscape:window-y="-1"
     inkscape:window-maximized="0"
     inkscape:current-layer="g2993" /><g
     id="g2993"
     inkscape:groupmode="layer"
     inkscape:label="it_artist_application_membership"
     transform="matrix(1.25,0,0,-1.25,-302.31498,1275.9643)"><g
       id="g3261"
       transform="matrix(6.2907389,0,0,6.2907389,-1281.6921,-3799.4912)"><g
         id="g3263"
         clip-path="url(#clipPath3265)"><g
           id="g3269"
           transform="translate(273.5826,763.2426)"><path
             d="m 0,0 c 1.021,-0.366 1.425,-2.057 1.021,-2.436 -1.074,-1.563 -2.101,-7.936 -1.83,-8.286 0.282,-0.345 20.802,4.987 34.991,3.176 0.499,-0.074 0.774,-0.4 0.823,-0.474 0.498,-0.763 2.482,-5.661 2.226,-6.159 -0.253,-0.493 -0.868,-0.597 -1.169,-0.597 -1.125,-0.024 -2.871,-0.009 -5.167,0.759 -0.151,0.06 -0.608,0.35 -0.948,0.376 -6.101,0.414 -16.617,-0.05 -31.436,-3.103 -0.652,-17.251 0.799,-21.793 2.619,-25.759 0.458,-1.015 -1.875,-1.884 -4.275,-1.064 -3.519,1.197 -3.482,16.63 -3.563,21.033 l -0.102,0.104 c -1.914,-3.738 -7.715,-16.734 -12.941,-21.813 -1.263,-1.219 -5.237,-1.037 -7.102,-0.11 -1.864,0.937 -2.643,3.538 -3.049,5.446 -2.052,9.697 2.214,27.643 2.214,28.248 0,0.608 -0.259,1.663 0.459,2.058 0.303,0.152 3.666,1.396 4.553,-2.378 0.035,-0.162 0.015,-0.285 -0.009,-0.423 -0.525,-2.615 -5.722,-20.255 -0.715,-31.564 0.601,-0.223 6.188,5.933 13.867,23.999 -6.307,-1.944 -8.178,-2.773 -8.805,-3.019 -0.427,-0.173 -2.174,-0.025 -3.144,1.204 -1.84,3.008 -1.819,5.045 -0.76,5.301 1.015,0.246 1.246,-0.256 1.814,-0.251 1.184,0.015 5.337,1.469 13.84,3.708 0.873,3.517 2.101,9.251 2.149,9.775 0.045,0.542 -0.478,1.682 0.078,2.091 C -3.802,0.232 -1.366,0.484 0,0"
             style="fill:#231f20;fill-opacity:1;fill-rule:nonzero;stroke:none"
             id="path3271"
             inkscape:connector-curvature="0" /></g><g
           id="g3273"
           transform="translate(255.7982,761.5703)"><path
             d="m 0,0 c 0,0 -0.621,-0.261 -0.75,-0.538 -0.197,-0.444 0.069,-0.477 -0.044,-0.551 -0.118,-0.069 -3.881,-1.53 -4.474,-1.875 -2.193,-1.307 -2.673,-1.834 -3.234,-1.834 -0.567,0 -4.936,3.21 -5.064,4.617 -0.025,0.309 0.25,0.596 0.454,0.709 0.304,0.192 6.229,3.635 7.998,4.079 0.7,0.172 4.35,-3.088 4.581,-3.319 C -0.246,1 -0.034,0.864 -0.025,0.671 0,0.355 0,0.361 0,0"
             style="fill:#231f20;fill-opacity:1;fill-rule:nonzero;stroke:none"
             id="path3275"
             inkscape:connector-curvature="0" /></g></g></g><g
       id="g3277"
       transform="matrix(6.2907389,0,0,6.2907389,-1281.6921,-3799.4912)"><g
         id="g3279"
         clip-path="url(#clipPath3281)"><g
           id="g3285"
           transform="translate(288.242,740.7216)"><path
             d="m 0,0 c -0.854,0.751 -2.031,1.176 -3.148,1.176 -2.672,0 -4.711,-2.239 -4.711,-4.878 0,-2.607 2.024,-4.838 4.681,-4.838 1.172,0 2.284,0.441 3.178,1.231 l 0,-1.755 c -0.922,-0.534 -2.095,-0.839 -3.138,-0.839 -3.397,0 -6.206,2.712 -6.206,6.152 0,3.521 2.828,6.276 6.338,6.276 1.039,0 2.097,-0.25 3.006,-0.804 L 0,0 z"
             style="fill:#231f20;fill-opacity:1;fill-rule:nonzero;stroke:none"
             id="path3287"
             inkscape:connector-curvature="0" /></g><g
           id="g3289"
           transform="translate(302.0195,737.0303)"><path
             d="m 0,0 c 0,-3.534 -2.784,-6.212 -6.238,-6.212 -3.449,0 -6.252,2.678 -6.252,6.212 0,3.417 2.832,6.216 6.252,6.216 C -2.829,6.216 0,3.417 0,0 m -1.485,0 c 0,2.628 -1.96,4.824 -4.753,4.824 -2.8,0 -4.763,-2.196 -4.763,-4.824 0,-2.711 2.188,-4.819 4.763,-4.819 2.567,0 4.753,2.108 4.753,4.819"
             style="fill:#231f20;fill-opacity:1;fill-rule:nonzero;stroke:none"
             id="path3291"
             inkscape:connector-curvature="0" /></g><g
           id="g3293"
           transform="translate(308.9865,740.7313)"><path
             d="m 0,0 c -0.447,0.741 -1.02,1.123 -1.917,1.123 -0.955,0 -1.996,-0.648 -1.996,-1.687 0,-0.931 0.917,-1.422 1.662,-1.711 l 0.848,-0.328 c 1.701,-0.662 2.962,-1.598 2.962,-3.589 0,-2.167 -1.677,-3.721 -3.81,-3.721 -1.922,0 -3.431,1.427 -3.675,3.339 l 1.494,0.313 c -0.01,-1.304 1.03,-2.259 2.305,-2.259 1.284,0 2.201,1.073 2.201,2.328 0,1.27 -1.025,1.829 -2.054,2.26 l -0.82,0.349 c -1.357,0.578 -2.593,1.357 -2.593,3.019 0,1.931 1.706,3.079 3.511,3.079 1.322,0 2.415,-0.647 3.058,-1.799 L 0,0 z"
             style="fill:#231f20;fill-opacity:1;fill-rule:nonzero;stroke:none"
             id="path3295"
             inkscape:connector-curvature="0" /></g><g
           id="g3297"
           transform="translate(314.6181,738.9472)"><path
             d="m 0,0 -0.031,0 -1.387,-7.873 -1.539,0 2.441,12.422 4.093,-9.378 4.094,9.378 2.432,-12.422 -1.535,0 L 7.18,0 7.14,0 3.577,-8.129 0,0 z"
             style="fill:#231f20;fill-opacity:1;fill-rule:nonzero;stroke:none"
             id="path3299"
             inkscape:connector-curvature="0" /></g><g
           id="g3301"
           transform="translate(326.6782,742.9963)"><path
             d="m 0,0 6.407,0 0,-1.359 -4.916,0 0,-3.333 4.775,0 0,-1.368 -4.775,0 0,-4.5 4.916,0 0,-1.362 -6.407,0 L 0,0 z"
             style="fill:#231f20;fill-opacity:1;fill-rule:nonzero;stroke:none"
             id="path3303"
             inkscape:connector-curvature="0" /></g><g
           id="g3305"
           transform="translate(338.8905,731.0742)"><path
             d="m 0,0 -1.485,0 0,10.563 -2.834,0 0,1.359 7.153,0 0,-1.359 L 0,10.563 0,0 z"
             style="fill:#231f20;fill-opacity:1;fill-rule:nonzero;stroke:none"
             id="path3307"
             inkscape:connector-curvature="0" /></g><path
           d="m 343.568,742.997 1.491,0 0,-11.923 -1.491,0 0,11.923 z"
           style="fill:#231f20;fill-opacity:1;fill-rule:nonzero;stroke:none"
           id="path3309"
           inkscape:connector-curvature="0" /><g
           id="g3311"
           transform="translate(356.5544,740.7216)"><path
             d="m 0,0 c -0.853,0.751 -2.023,1.176 -3.147,1.176 -2.677,0 -4.717,-2.239 -4.717,-4.878 0,-2.607 2.031,-4.838 4.689,-4.838 1.167,0 2.288,0.441 3.175,1.231 l 0,-1.755 c -0.921,-0.534 -2.082,-0.839 -3.128,-0.839 -3.406,0 -6.212,2.712 -6.212,6.152 0,3.521 2.823,6.276 6.331,6.276 1.048,0 2.115,-0.25 3.009,-0.804 L 0,0 z"
             style="fill:#231f20;fill-opacity:1;fill-rule:nonzero;stroke:none"
             id="path3313"
             inkscape:connector-curvature="0" /></g><g
           id="g3315"
           transform="translate(364.3621,740.7313)"><path
             d="m 0,0 c -0.452,0.741 -1.02,1.123 -1.922,1.123 -0.942,0 -1.981,-0.648 -1.981,-1.687 0,-0.931 0.907,-1.422 1.657,-1.711 l 0.852,-0.328 c 1.687,-0.662 2.953,-1.598 2.953,-3.589 0,-2.167 -1.666,-3.721 -3.805,-3.721 -1.931,0 -3.431,1.427 -3.677,3.339 l 1.491,0.313 c -0.016,-1.304 1.03,-2.259 2.313,-2.259 1.28,0 2.193,1.073 2.193,2.328 0,1.27 -1.019,1.829 -2.05,2.26 l -0.83,0.349 c -1.362,0.578 -2.592,1.357 -2.592,3.019 0,1.931 1.715,3.079 3.515,3.079 1.322,0 2.417,-0.647 3.069,-1.799 L 0,0 z"
             style="fill:#231f20;fill-opacity:1;fill-rule:nonzero;stroke:none"
             id="path3317"
             inkscape:connector-curvature="0" /></g><g
           id="g3319"
           transform="translate(368.3069,742.5016)"><path
             d="m 0,0 -0.602,1.335 -0.387,-1.971 0.334,0 0.171,0.983 0.484,-1.016 0.485,1.016 0.168,-0.983 0.336,0 L 0.602,1.335 0,0 z m -2.226,1.17 0,-0.307 0.398,0 0,-1.499 0.33,0 0,1.499 0.398,0 0,0.307 -1.126,0 z"
             style="fill:#231f20;fill-opacity:1;fill-rule:nonzero;stroke:none"
             id="path3321"
             inkscape:connector-curvature="0" /></g></g></g></g></svg>