<?xml version="1.0" encoding="utf-8"?>
<!-- Generator: Adobe Illustrator 26.3.1, SVG Export Plug-In . SVG Version: 6.00 Build 0)  -->
<svg version="1.1" id="Layer_1" xmlns="http://www.w3.org/2000/svg" xmlns:xlink="http://www.w3.org/1999/xlink" x="0px" y="0px"
	 viewBox="0 0 134 40" style="enable-background:new 0 0 134 40;" xml:space="preserve">
<style type="text/css">
	.st0{fill:#8529CD;}
</style>
<path class="st0" d="M107.9,33.4H26.8l6.5,6.5L107.9,33.4L107.9,33.4z M34.3,7.3v1c-1.4-1-3-1.5-4.7-1.5c-5.7,0-10,5.2-10,11.5
	s4.3,11.5,10,11.5c1.7,0,3.3-0.5,4.7-1.5v1h5v-22C39.3,7.3,34.3,7.3,34.3,7.3z M29.6,24.5c-2.8,0-4.9-2.8-4.9-6.2s2.1-6.2,4.9-6.2
	c2.8,0,4.8,2.8,4.8,6.2C34.4,21.8,32.4,24.5,29.6,24.5C29.6,24.5,29.6,24.5,29.6,24.5z M74.3,7.3v12.9c0,2.4-1.7,4.5-4.1,4.5
	s-4.1-2-4.1-4.5V7.3h-5v12.9c0,5.3,3.6,9.6,8.9,9.6c1.5,0,3-0.5,4.2-1.4v0.8h5v-22L74.3,7.3L74.3,7.3z M120.8,29.3V16.4
	c0-2.4,1.7-4.5,4.1-4.5c2.4,0,4.1,2,4.1,4.5v12.9h5V16.4c0-5.3-3.6-9.6-8.9-9.6c-1.5,0-3,0.5-4.2,1.4V7.3h-5v22L120.8,29.3z"/>
<path class="st0" d="M5.2,29.3v-8.5h3.7l6.4,8.5h6.6L14.1,19c4.3-3,5.3-8.9,2.2-13.2c-1.8-2.5-4.7-4-7.7-4H0v27.5H5.2z M5.2,7h3.4
	c2.4,0,4.3,1.9,4.3,4.3s-1.9,4.3-4.3,4.3H5.2C5.2,15.6,5.2,7,5.2,7z M92.8,24.1c-0.5,0.3-1.1,0.5-1.7,0.5c-0.8,0-2.4-0.6-2.4-2.7
	v-9.4H93V7.3h-4.3V1.8h-5v5.5h-2.6v5.2h2.6V22c0,4.9,3.7,7.9,7.4,7.9c1.7,0,3.4-0.5,4.9-1.4L92.8,24.1L92.8,24.1z M51.7,17.6
	l8.6-10.3h-7l-6,7.7V0h-5.1v29.3h5.1v-9l7.4,9h7L51.7,17.6z"/>
<path class="st0" d="M104.3,6.7c-5.8,0-9.9,5.1-9.9,11.6c0,6.8,5.2,11.6,10.4,11.6c2.6,0,6-0.9,8.8-4.9l-4.4-2.5
	c-3.4,5-9.1,2.5-9.8-2.5h14.4C115.1,11.9,110,6.7,104.3,6.7L104.3,6.7z M108.6,15.5h-9C100.7,10.3,107.7,10,108.6,15.5z"/>
</svg>
