<svg width="163" height="20" viewBox="0 0 163 20" fill="none" xmlns="http://www.w3.org/2000/svg">
<path d="M26.9368 12.0095H24.017C23.7465 12.0095 23.558 11.7528 23.6513 11.5105L25.111 7.71347C25.2357 7.389 25.7175 7.389 25.8425 7.71347L27.3023 11.5105C27.3959 11.7528 27.2077 12.0095 26.9368 12.0095ZM7.29227 9.09352H5.79952C5.57322 9.09352 5.38987 8.91907 5.38987 8.70337V5.36306C5.38987 5.14766 5.57322 4.9729 5.79952 4.9729H7.29227C8.67572 4.9729 9.68477 5.74222 9.68477 7.03337C9.68445 8.32452 8.67572 9.09352 7.29227 9.09352ZM28.1062 0.605722C28.051 0.472513 27.9158 0.385133 27.7658 0.385133H23.3064C23.1561 0.385133 23.0208 0.472818 22.9657 0.605722L15.8699 17.6968C15.7683 17.9422 15.4199 17.9797 15.2631 17.7622L11.7013 12.831C11.5654 12.6428 11.6282 12.3853 11.8362 12.2719C13.8108 11.1974 15.132 9.39752 15.132 6.89557C15.132 2.71965 11.9039 0.384521 7.20572 0.384521H0.409649C0.183348 0.384827 0 0.559588 0 0.775288V19.2254C0 19.4408 0.183348 19.6158 0.409649 19.6158H4.98054C5.20652 19.6158 5.38987 19.4411 5.38987 19.2254V13.6795C5.38987 13.5081 5.49597 13.3446 5.66617 13.2902C5.85209 13.2309 6.04569 13.3024 6.14442 13.4503L10.1399 19.4349C10.2149 19.5474 10.3454 19.6158 10.4852 19.6158H15.6119H15.8225H20.3517C20.5052 19.6158 20.6424 19.5248 20.6953 19.3876L21.7864 16.5743C21.8396 16.4371 21.9768 16.3464 22.13 16.3464H28.7985C28.9508 16.3464 29.0873 16.4362 29.1412 16.5719L30.2592 19.3897C30.3134 19.5257 30.4496 19.6158 30.6022 19.6158H35.4593C35.7177 19.6158 35.8953 19.3671 35.8001 19.138L28.1062 0.605722Z" fill="black"/>
<path d="M46.1153 0.384766H32.394C32.1395 0.384766 31.9333 0.581219 31.9333 0.823806V4.78097C31.9333 5.02356 32.1398 5.22001 32.394 5.22001H36.0847C36.3392 5.22001 36.5453 5.41646 36.5453 5.65905V19.1764C36.5453 19.419 36.7514 19.6158 37.0059 19.6158H41.5034C41.7579 19.6158 41.9637 19.4193 41.9637 19.1764V5.65905C41.9637 5.41646 42.1698 5.22001 42.4243 5.22001H46.115C46.3695 5.22001 46.5756 5.02356 46.5756 4.78097V0.823806C46.5759 0.581219 46.3698 0.384766 46.1153 0.384766Z" fill="black"/>
<path d="M59.1796 14.9452H53.3544C53.1047 14.9452 52.9018 14.7521 52.9018 14.5138V12.6296C52.9018 12.3913 53.1044 12.1982 53.3544 12.1982H58.2429C58.493 12.1982 58.6956 12.0051 58.6956 11.7668V8.12403C58.6956 7.88572 58.493 7.69263 58.2429 7.69263H53.3544C53.1047 7.69263 52.9018 7.49954 52.9018 7.26123V5.48674C52.9018 5.24843 53.1044 5.05533 53.3544 5.05533H59.1222C59.3719 5.05533 59.5748 4.86224 59.5748 4.62393V0.816473C59.5748 0.578163 59.3722 0.384766 59.1222 0.384766H47.936C47.686 0.384766 47.4834 0.578163 47.4834 0.816473V19.1841C47.4834 19.4224 47.686 19.6155 47.936 19.6155H59.1796C59.4296 19.6155 59.6322 19.4224 59.6322 19.1841V15.3766C59.6322 15.1383 59.4296 14.9452 59.1796 14.9452Z" fill="black"/>
<path d="M70.7543 8.04968L67.9874 7.06069C67.2091 6.78603 66.6616 6.48386 66.6616 5.87953C66.6616 5.19271 67.2671 4.75336 68.2758 4.75336C69.367 4.75336 70.2574 5.39222 70.8478 6.29505C70.9822 6.50066 71.2687 6.55963 71.4844 6.43192L75.0982 4.29294C75.3162 4.16401 75.3848 3.89056 75.2505 3.68189C73.7731 1.38311 71.0556 0 68.1313 0C64.0386 0 61.0986 2.50011 61.0986 6.15389C61.0986 9.12085 63.1453 10.8517 66.0561 11.8409L68.506 12.6653C69.6009 13.0224 70.0337 13.4346 70.0337 13.9839C70.0337 14.7804 69.1977 15.1654 68.189 15.1654C66.9155 15.1654 65.6426 14.4507 64.9393 13.2632C64.8118 13.0472 64.5223 12.9747 64.2986 13.1012L60.5797 15.2008C60.3643 15.3221 60.2883 15.5845 60.4063 15.7947C61.951 18.542 64.9881 20 68.131 20C71.9935 20 75.654 17.7199 75.654 13.6814C75.6543 11.0441 74.0689 9.23084 70.7543 8.04968Z" fill="black"/>
<path d="M104.201 14.9726C101.319 14.9726 99.0709 12.7749 99.0709 10.0002C99.0709 7.22537 101.319 5.02773 104.201 5.02773C107.083 5.02773 109.332 7.22568 109.332 10.0002C109.332 12.7749 107.083 14.9726 104.201 14.9726ZM83.6517 14.7801H82.525C82.2878 14.7801 82.0955 14.5968 82.0955 14.3707V5.62961C82.0955 5.40352 82.2878 5.22021 82.525 5.22021H83.5052C86.3154 5.22021 88.6886 7.41205 88.637 10.0903C88.5873 12.686 86.3872 14.7801 83.6517 14.7801ZM127.518 4.88688V0.717679C127.518 0.533753 127.362 0.384656 127.169 0.384656H113.225C113.032 0.384656 112.876 0.534058 112.876 0.717679V3.53249C112.876 3.7271 112.621 3.81265 112.49 3.66294C110.531 1.41978 107.547 0 104.201 0C99.461 0 95.4443 2.84689 94.0413 6.85263C93.9759 7.039 93.7009 7.04786 93.6317 6.86271C92.2133 3.07236 88.3001 0.384656 83.7671 0.384656H77.1063C76.8691 0.384656 76.6768 0.568277 76.6768 0.794366V19.2059C76.6768 19.432 76.8691 19.6153 77.1063 19.6153H83.7671C88.3001 19.6153 92.2133 16.9279 93.6317 13.1376C93.7009 12.9521 93.9759 12.9607 94.0413 13.1474C95.4443 17.1528 99.461 20 104.201 20C110.11 20 114.894 15.5772 114.894 9.99985C114.894 8.38484 114.493 6.86607 113.779 5.5239C113.705 5.38458 113.807 5.2199 113.971 5.2199H117.138C117.331 5.2199 117.488 5.36869 117.488 5.55262V19.282C117.488 19.4659 117.644 19.615 117.837 19.615H122.557C122.75 19.615 122.907 19.4659 122.907 19.282V5.55292C122.907 5.369 123.063 5.22021 123.256 5.22021H127.169C127.362 5.22021 127.518 5.07111 127.518 4.88688Z" fill="#DF3226"/>
<path d="M140.965 14.1914C139.997 14.6597 138.994 14.9179 137.779 14.9179C134.637 14.9179 132.59 12.7199 132.59 10.0002C132.59 7.25287 134.637 5.08272 137.779 5.08272C138.993 5.08272 140.15 5.34486 141.124 5.81476C141.685 6.08484 142.347 5.70385 142.347 5.10533V1.66756C142.347 1.36264 142.167 1.08156 141.879 0.948656C140.492 0.309803 138.858 0 137.461 0C131.495 0 126.999 4.39559 126.999 9.99985C126.999 15.7691 131.38 19.9997 137.432 19.9997C138.614 19.9997 140.037 19.7907 141.53 19.1534C141.929 18.9832 142.188 18.6068 142.188 18.1904V14.8993C142.188 14.3007 141.525 13.9204 140.965 14.1914Z" fill="black"/>
<path d="M154.123 12.0057H151.203C150.932 12.0057 150.744 11.7488 150.837 11.5065L152.297 7.71005C152.422 7.38527 152.904 7.38527 153.029 7.71005L154.489 11.5065C154.582 11.7488 154.393 12.0057 154.123 12.0057ZM162.972 19.1077L155.297 0.619409C155.238 0.477951 155.094 0.384766 154.934 0.384766H150.507C150.347 0.384766 150.203 0.477951 150.144 0.619409L142.508 19.0145C142.378 19.3451 142.63 19.6158 142.905 19.6158H147.52C147.684 19.6158 147.829 19.5192 147.886 19.3732L148.966 16.5889C149.022 16.4432 149.168 16.3463 149.331 16.3463H155.968C156.13 16.3463 156.275 16.442 156.332 16.5862L157.439 19.3756C157.496 19.5198 157.641 19.6155 157.803 19.6155H162.61C162.885 19.6155 163.073 19.3512 162.972 19.1077Z" fill="black"/>
</svg>
