<?xml version="1.0" encoding="utf-8"?>
<!-- Generator: Adobe Illustrator 26.3.1, SVG Export Plug-In . SVG Version: 6.00 Build 0)  -->
<svg version="1.1" id="Layer_1" xmlns="http://www.w3.org/2000/svg" xmlns:xlink="http://www.w3.org/1999/xlink" x="0px" y="0px"
	 viewBox="0 0 144.3 19.9" style="enable-background:new 0 0 144.3 19.9;" xml:space="preserve">
<style type="text/css">
	.st0{fill:#FF0099;}
</style>
<path class="st0" d="M5.7,15.8c-3.6,0-5.5-1.9-5.7-4.9h2.8c0.1,1.5,1.1,2.4,2.8,2.4C7,13.4,8,12.8,8,11.5c0-1.5-1.5-2-2.9-2.4
	L4.3,8.8C2.4,8.2,0.5,7.1,0.5,4.6c0-2.7,2.2-4.4,5.1-4.4c3.1,0,5.1,1.9,5.2,4.5H8c-0.1-1.2-0.9-2-2.3-2c-1.3,0-2.3,0.7-2.3,1.8
	c0,1.3,1.3,1.7,2.6,2.1l0.8,0.2c1.4,0.4,4.2,1.5,4.2,4.6C10.9,14.4,8.5,15.8,5.7,15.8z M11.9,1.7c0-1,0.8-1.7,1.7-1.7
	s1.7,0.7,1.7,1.7c0,0.9-0.8,1.7-1.7,1.7S11.9,2.6,11.9,1.7z M12.2,4.7H15v10.8h-2.8V4.7z M16.5,4.7H19L19.2,6h0.2
	c0.6-0.8,1.5-1.5,3-1.5c1.7,0,2.5,0.9,2.8,1.7h0.2c0.6-0.8,1.5-1.7,3.4-1.7c2.2,0,3.7,1.3,3.7,4v7.1h-2.8V9c0-1.4-0.8-2.1-1.9-2.1
	c-1.2,0-2,0.9-2,2.2v6.4h-2.8V9.1c0-1.4-0.8-2.2-1.8-2.2c-1,0-2,0.7-2,2.2v6.4h-2.8V4.7z M45,10.2c0,3.5-2.3,5.6-5.1,5.6
	c-1.5,0-2.6-0.6-3.1-1.2v5.4H34V4.7h2.3L36.5,6h0.2c0.5-0.7,1.5-1.5,3.2-1.5C42.8,4.5,45,6.7,45,10.2z M42.2,10.2
	c0-1.9-1.1-3.2-2.8-3.2c-1.6,0-2.7,1.3-2.7,3.2c0,1.9,1.1,3.2,2.7,3.2C41.1,13.4,42.2,12.1,42.2,10.2z M46.1,0.2h2.8v15.4h-2.8V0.2z
	 M50.1,1.7c0-1,0.8-1.7,1.7-1.7c0.9,0,1.7,0.7,1.7,1.7c0,0.9-0.8,1.7-1.7,1.7C50.9,3.4,50.1,2.6,50.1,1.7z M50.4,4.7h2.8v10.8h-2.8
	V4.7z M54.4,1.7c0-1,0.8-1.7,1.7-1.7c0.9,0,1.7,0.7,1.7,1.7c0,0.9-0.8,1.7-1.7,1.7C55.2,3.4,54.4,2.6,54.4,1.7z M54.7,4.7h2.8v10.8
	h-2.8V4.7z M67.2,3v4h6.2v2.5h-6.2v6h-2.9V0.4h10V3H67.2z M75.1,1.7c0-1,0.8-1.7,1.7-1.7s1.7,0.7,1.7,1.7c0,0.9-0.8,1.7-1.7,1.7
	S75.1,2.6,75.1,1.7z M75.4,4.7h2.8v10.8h-2.8V4.7z M79.7,4.7h2.5L82.5,6h0.2c0.7-0.8,1.6-1.5,3.2-1.5c2.6,0,4.2,1.6,4.2,4.5v6.6
	h-2.8v-6c0-1.8-1-2.6-2.3-2.6c-1.3,0-2.5,0.8-2.5,2.8v5.9h-2.8V4.7z M101.8,13.5v2.1h-1.2c-1,0-1.8-0.3-2.2-1.3
	c-0.7,0.9-1.9,1.5-3.6,1.5c-2.2,0-3.8-1-3.8-3.2c0-2.1,1.6-3.1,3.6-3.3L98,9V8.5c0-1.2-0.8-1.8-1.8-1.8c-1.2,0-1.8,0.6-1.9,1.6h-2.8
	c0.2-2.3,1.9-3.8,4.7-3.8c2.5,0,4.6,1.3,4.6,4.2v4c0,0.6,0.3,0.8,0.8,0.8H101.8z M98,10.9l-2.4,0.3c-1,0.1-1.8,0.5-1.8,1.4
	c0,0.9,0.7,1.2,1.5,1.2c1.2,0,2.6-0.6,2.6-2.3V10.9z M102.6,4.7h2.5l0.2,1.3h0.2c0.7-0.8,1.6-1.5,3.2-1.5c2.6,0,4.2,1.6,4.2,4.5v6.6
	h-2.8v-6c0-1.8-1-2.6-2.3-2.6c-1.3,0-2.5,0.8-2.5,2.8v5.9h-2.8V4.7z M114.1,10.2c0-3.4,2.5-5.7,5.6-5.7c2.5,0,4.9,1.3,5.2,4.2h-2.8
	c-0.2-1-1.2-1.8-2.5-1.8c-1.6,0-2.9,1.3-2.9,3.3c0,1.9,1.1,3.2,2.9,3.2c1.3,0,2.1-0.6,2.4-1.6h2.8c-0.4,2.4-2.4,4-5.2,4
	C116.4,15.8,114.1,13.5,114.1,10.2z M125.7,1.7c0-1,0.8-1.7,1.7-1.7s1.7,0.7,1.7,1.7c0,0.9-0.8,1.7-1.7,1.7S125.7,2.6,125.7,1.7z
	 M126,4.7h2.8v10.8H126V4.7z M140.7,13.5v2.1h-1.2c-1,0-1.8-0.3-2.2-1.3c-0.7,0.9-1.9,1.5-3.6,1.5c-2.2,0-3.8-1-3.8-3.2
	c0-2.1,1.6-3.1,3.6-3.3l3.4-0.3V8.5c0-1.2-0.8-1.8-1.8-1.8c-1.2,0-1.8,0.6-1.9,1.6h-2.8c0.2-2.3,1.9-3.8,4.7-3.8
	c2.5,0,4.6,1.3,4.6,4.2v4c0,0.6,0.3,0.8,0.8,0.8H140.7z M136.9,10.9l-2.4,0.3c-1,0.1-1.8,0.5-1.8,1.4c0,0.9,0.7,1.2,1.5,1.2
	c1.2,0,2.6-0.6,2.6-2.3V10.9z M141.5,0.2h2.8v15.4h-2.8V0.2z"/>
</svg>
