<svg xmlns="http://www.w3.org/2000/svg" width="82.909" height="21.786" viewBox="0 0 82.909 21.786">
  <g id="logo-wellca-black" transform="translate(-37.624 -23.767)">
    <g id="Group_895" data-name="Group 895" transform="translate(61.669 27.426)">
      <g id="Group_894" data-name="Group 894" transform="translate(0 0)">
        <path id="Path_56" data-name="Path 56" d="M319.205,78.953l-2.491-9.75-2.469,9.75H311.03l-4.066-14.2h3.385l2.491,10.261,2.7-10.261h2.363l2.682,10.261,2.491-10.261h3.385l-4.045,14.2Z" transform="translate(-306.964 -64.753)" fill="#1a1818"/>
        <path id="Path_57" data-name="Path 57" d="M510.847,111.155a5.246,5.246,0,0,1,5.322-5.386c3.087,0,5.152,2.3,5.152,5.642v.639h-7.643a2.756,2.756,0,0,0,2.959,2.3,4.3,4.3,0,0,0,2.725-1l1.213,1.788a6.409,6.409,0,0,1-4.237,1.426A5.208,5.208,0,0,1,510.847,111.155Zm5.322-3.172a2.371,2.371,0,0,0-2.512,2.193h5.067A2.356,2.356,0,0,0,516.169,107.983Z" transform="translate(-492.645 -102.107)" fill="#1a1818"/>
        <path id="Path_58" data-name="Path 58" d="M634.248,78.953v-14.2h2.7v14.2Z" transform="translate(-605.03 -64.753)" fill="#1a1818"/>
        <path id="Path_59" data-name="Path 59" d="M677.43,78.953v-14.2h2.7v14.2Z" transform="translate(-644.357 -64.753)" fill="#1a1818"/>
        <path id="Path_60" data-name="Path 60" d="M717.871,189.525a1.724,1.724,0,1,1,1.724,1.724A1.745,1.745,0,0,1,717.871,189.525Z" transform="translate(-681.187 -176.816)" fill="#1a1818"/>
        <path id="Path_61" data-name="Path 61" d="M755.757,111.155a5.228,5.228,0,0,1,5.45-5.386,4.785,4.785,0,0,1,4.066,1.852l-1.767,1.66a2.494,2.494,0,0,0-2.172-1.107,3,3,0,0,0,0,5.982,2.561,2.561,0,0,0,2.172-1.128l1.767,1.66a4.793,4.793,0,0,1-4.066,1.874A5.233,5.233,0,0,1,755.757,111.155Z" transform="translate(-715.691 -102.107)" fill="#1a1818"/>
        <path id="Path_62" data-name="Path 62" d="M866.3,116.307v-1.086a4.194,4.194,0,0,1-3.257,1.341,3.408,3.408,0,0,1-3.555-3.406,3.261,3.261,0,0,1,3.555-3.321,4.2,4.2,0,0,1,3.257,1.256v-1.3c0-1.043-.894-1.724-2.257-1.724a4.323,4.323,0,0,0-2.959,1.213l-1.064-1.895a6.638,6.638,0,0,1,4.492-1.618c2.363,0,4.513.937,4.513,3.9v6.642Zm0-2.47V112.56a2.718,2.718,0,0,0-2.171-.916c-1.064,0-1.937.575-1.937,1.554s.873,1.533,1.937,1.533A2.7,2.7,0,0,0,866.3,113.837Z" transform="translate(-810.159 -102.107)" fill="#1a1818"/>
      </g>
    </g>
    <g id="Group_901" data-name="Group 901" transform="translate(37.624 23.767)">
      <g id="Group_900" data-name="Group 900">
        <g id="Group_899" data-name="Group 899">
          <g id="Group_898" data-name="Group 898">
            <g id="Group_897" data-name="Group 897">
              <g id="Group_896" data-name="Group 896">
                <path id="Path_63" data-name="Path 63" d="M59.424,34.667A10.9,10.9,0,1,0,47.969,45.553V43.209a2.492,2.492,0,0,0,1.379-.032v1.334h0v1.025A10.9,10.9,0,0,0,59.424,34.667ZM48.667,26.829l2.272,2.1-2.275,2.022L46.394,29Zm-.183,15.565a6.888,6.888,0,0,1-5.007-3.474,8.689,8.689,0,0,1-.892-3.715,16.363,16.363,0,0,1,.344-3.784,23.462,23.462,0,0,1,1.156-3.92l4.836,4.312A5.8,5.8,0,0,1,50.9,35.294a7.207,7.207,0,0,1-.389,3.449A12.987,12.987,0,0,1,48.484,42.394Zm6.167-7.2a8.714,8.714,0,0,1-.883,3.713,7.044,7.044,0,0,1-4.707,3.51,13.8,13.8,0,0,0,2.007-3.742,7.354,7.354,0,0,0,.329-3.523,6.121,6.121,0,0,0-2.067-3.566l-.378-.337,4.2-3.744a23.46,23.46,0,0,1,1.154,3.911A16.393,16.393,0,0,1,54.652,35.2Z" transform="translate(-37.624 -23.767)" fill="#1a1818"/>
              </g>
            </g>
          </g>
        </g>
      </g>
    </g>
  </g>
</svg>
